# xmcd
#
# Track frame offsets: 
#        150
#        16515
#        40517
#        55091
#        69751
#        82565
#        92317
#        104009
#        121011
#        136748
#        150202
#        167029
#        185881
#        204520
#        222397
#
# Disc length: 3199 seconds
#
# Revision: 0
# Processed by: cddbd v1.4PL0 Copyright (c) Steve Scherf et al.
# Submitted via: ExactAudioCopy v0.90b4
#
DISCID=a90c7d0f
DTITLE=Various Artist - Country Woman Singer
DYEAR=2000
DGENRE=Country
TTITLE0=Jambalaya
TTITLE1=The Wedding
TTITLE2=Over And Over
TTITLE3=Donna Donna
TTITLE4=I'll Never Fall In Love Again
TTITLE5=Love Potion No.9
TTITLE6=Rhythm Of The Rain
TTITLE7=Again
TTITLE8=Crying In The Rain
TTITLE9=Let Me Be There
TTITLE10=You Need Me
TTITLE11=Before The Next Teardrop Falls
TTITLE12=Kiss Me Goodbye
TTITLE13=Frankie
TTITLE14=Till Loneliness Is Gone-Kristie
EXTD=
EXTT0=
EXTT1=
EXTT2=
EXTT3=
EXTT4=
EXTT5=
EXTT6=
EXTT7=
EXTT8=
EXTT9=
EXTT10=
EXTT11=
EXTT12=
EXTT13=
EXTT14=
PLAYORDER=
